<mxfile host="65bd71144e">
    <diagram id="mt497pO370uEOYEDW6oj" name="Page-1">
        <mxGraphModel dx="2136" dy="713" grid="1" gridSize="10" guides="1" tooltips="1" connect="1" arrows="1" fold="1" page="1" pageScale="1" pageWidth="850" pageHeight="1100" math="0" shadow="0">
            <root>
                <mxCell id="0"/>
                <mxCell id="1" parent="0"/>
                <mxCell id="39" value="" style="rounded=0;whiteSpace=wrap;html=1;" vertex="1" parent="1">
                    <mxGeometry x="-180" y="40" width="970" height="380" as="geometry"/>
                </mxCell>
                <mxCell id="26" style="edgeStyle=none;html=1;" edge="1" parent="1" source="2" target="3">
                    <mxGeometry relative="1" as="geometry">
                        <Array as="points">
                            <mxPoint x="60" y="80"/>
                        </Array>
                    </mxGeometry>
                </mxCell>
                <mxCell id="38" style="edgeStyle=none;html=1;entryX=0.583;entryY=-0.05;entryDx=0;entryDy=0;entryPerimeter=0;" edge="1" parent="1" source="2" target="32">
                    <mxGeometry relative="1" as="geometry">
                        <Array as="points">
                            <mxPoint x="560" y="80"/>
                        </Array>
                    </mxGeometry>
                </mxCell>
                <mxCell id="2" value="Source" style="html=1;whiteSpace=wrap;" parent="1" vertex="1">
                    <mxGeometry x="240" y="60" width="120" height="40" as="geometry"/>
                </mxCell>
                <mxCell id="22" style="edgeStyle=none;html=1;" edge="1" parent="1" source="3" target="10">
                    <mxGeometry relative="1" as="geometry">
                        <Array as="points">
                            <mxPoint x="-120" y="220"/>
                        </Array>
                    </mxGeometry>
                </mxCell>
                <mxCell id="23" style="edgeStyle=none;html=1;" edge="1" parent="1" source="3" target="12">
                    <mxGeometry relative="1" as="geometry">
                        <Array as="points">
                            <mxPoint y="230"/>
                        </Array>
                    </mxGeometry>
                </mxCell>
                <mxCell id="24" style="edgeStyle=none;html=1;entryX=0.5;entryY=0;entryDx=0;entryDy=0;" edge="1" parent="1" source="3" target="21">
                    <mxGeometry relative="1" as="geometry">
                        <Array as="points">
                            <mxPoint x="240" y="220"/>
                        </Array>
                    </mxGeometry>
                </mxCell>
                <mxCell id="25" style="edgeStyle=none;html=1;entryX=0.5;entryY=0;entryDx=0;entryDy=0;" edge="1" parent="1" source="3" target="20">
                    <mxGeometry relative="1" as="geometry">
                        <Array as="points">
                            <mxPoint x="120" y="240"/>
                        </Array>
                    </mxGeometry>
                </mxCell>
                <mxCell id="3" value="Load Balance 1" style="html=1;whiteSpace=wrap;" parent="1" vertex="1">
                    <mxGeometry y="200" width="120" height="40" as="geometry"/>
                </mxCell>
                <mxCell id="10" value="Service 1" style="html=1;whiteSpace=wrap;" parent="1" vertex="1">
                    <mxGeometry x="-160" y="360" width="80" height="40" as="geometry"/>
                </mxCell>
                <mxCell id="12" value="Service 2" style="html=1;whiteSpace=wrap;" parent="1" vertex="1">
                    <mxGeometry x="-40" y="360" width="80" height="40" as="geometry"/>
                </mxCell>
                <mxCell id="20" value="Service 3" style="html=1;whiteSpace=wrap;" vertex="1" parent="1">
                    <mxGeometry x="80" y="360" width="80" height="40" as="geometry"/>
                </mxCell>
                <mxCell id="21" value="Service 4" style="html=1;whiteSpace=wrap;" vertex="1" parent="1">
                    <mxGeometry x="200" y="360" width="80" height="40" as="geometry"/>
                </mxCell>
                <mxCell id="28" style="edgeStyle=none;html=1;" edge="1" parent="1" source="32" target="33">
                    <mxGeometry relative="1" as="geometry">
                        <Array as="points">
                            <mxPoint x="370" y="220"/>
                        </Array>
                    </mxGeometry>
                </mxCell>
                <mxCell id="29" style="edgeStyle=none;html=1;" edge="1" parent="1" source="32" target="34">
                    <mxGeometry relative="1" as="geometry">
                        <Array as="points">
                            <mxPoint x="490" y="230"/>
                        </Array>
                    </mxGeometry>
                </mxCell>
                <mxCell id="30" style="edgeStyle=none;html=1;entryX=0.5;entryY=0;entryDx=0;entryDy=0;" edge="1" parent="1" source="32" target="36">
                    <mxGeometry relative="1" as="geometry">
                        <Array as="points">
                            <mxPoint x="730" y="220"/>
                        </Array>
                    </mxGeometry>
                </mxCell>
                <mxCell id="31" style="edgeStyle=none;html=1;entryX=0.5;entryY=0;entryDx=0;entryDy=0;" edge="1" parent="1" source="32" target="35">
                    <mxGeometry relative="1" as="geometry">
                        <Array as="points">
                            <mxPoint x="610" y="240"/>
                        </Array>
                    </mxGeometry>
                </mxCell>
                <mxCell id="32" value="Load Balance 2" style="html=1;whiteSpace=wrap;" vertex="1" parent="1">
                    <mxGeometry x="490" y="200" width="120" height="40" as="geometry"/>
                </mxCell>
                <mxCell id="33" value="Service 5" style="html=1;whiteSpace=wrap;" vertex="1" parent="1">
                    <mxGeometry x="330" y="360" width="80" height="40" as="geometry"/>
                </mxCell>
                <mxCell id="34" value="Service 6" style="html=1;whiteSpace=wrap;" vertex="1" parent="1">
                    <mxGeometry x="450" y="360" width="80" height="40" as="geometry"/>
                </mxCell>
                <mxCell id="35" value="Service 7" style="html=1;whiteSpace=wrap;" vertex="1" parent="1">
                    <mxGeometry x="570" y="360" width="80" height="40" as="geometry"/>
                </mxCell>
                <mxCell id="36" value="Service 8" style="html=1;whiteSpace=wrap;" vertex="1" parent="1">
                    <mxGeometry x="690" y="360" width="80" height="40" as="geometry"/>
                </mxCell>
            </root>
        </mxGraphModel>
    </diagram>
</mxfile>